<svg xmlns="http://www.w3.org/2000/svg" viewBox="0 0 500 500" width="100%" height="100%">
  <rect width="500" height="500" rx="50" fill="#3A6D9C" />

  <g stroke="#FFFFFF" stroke-width="1.5" opacity="0.15">
    <line x1="125" y1="60" x2="125" y2="440" />
    <line x1="250" y1="50" x2="250" y2="450" />
    <line x1="375" y1="60" x2="375" y2="440" />
    <line x1="60" y1="125" x2="440" y2="125" />
    <line x1="50" y1="250" x2="450" y2="250" />
    <line x1="60" y1="375" x2="440" y2="375" />
  </g>

  <path d="M 60,310 
           C 110,330 140,220 175,185 
           C 210,150 260,150 310,245 
           C 335,292.5 390,330 440,120" 
        fill="none" stroke="#FFCA28" stroke-width="16" stroke-linecap="round" />

  <circle cx="60" cy="310" r="14" fill="#FFCA28" />
  <circle cx="175" cy="185" r="14" fill="#FFCA28" />
  <circle cx="310" cy="245" r="14" fill="#FFCA28" />
  <circle cx="440" cy="120" r="14" fill="#FFCA28" />

  <circle cx="310" cy="245" r="28" fill="none" stroke="#FFFFFF" stroke-width="4" stroke-dasharray="8, 6" />

  <text x="250" y="450" font-family="system-ui, -apple-system, sans-serif" font-size="34" fill="#FFFFFF" text-anchor="middle" font-weight="400" letter-spacing="0.5">tsdata</text>
</svg>
